<?xml version="1.0" encoding="UTF-8"?>
<svg xmlns="http://www.w3.org/2000/svg" xmlns:xlink="http://www.w3.org/1999/xlink" width="25pt" height="25pt" viewBox="0 0 25 25" version="1.1">
<g id="surface1">
<path style=" stroke:none;fill-rule:nonzero;fill:rgb(21.960784%,30.980392%,49.411765%);fill-opacity:1;" d="M 12.277344 20.257812 C 12.277344 20.855469 11.796875 21.335938 11.199219 21.335938 C 10.601562 21.335938 10.121094 20.855469 10.121094 20.257812 C 10.121094 19.660156 10.601562 19.179688 11.199219 19.179688 C 11.796875 19.179688 12.277344 19.660156 12.277344 20.257812 "/>
<path style=" stroke:none;fill-rule:nonzero;fill:rgb(100%,100%,100%);fill-opacity:1;" d="M 11.875 20.71875 L 10.515625 20.71875 L 10.515625 19.796875 L 11.875 19.796875 L 11.875 20.71875 "/>
<path style=" stroke:none;fill-rule:nonzero;fill:rgb(21.960784%,30.980392%,49.411765%);fill-opacity:1;" d="M 10.546875 20.683594 L 11.839844 20.683594 L 11.839844 19.832031 L 10.546875 19.832031 Z M 11.875 20.75 L 10.515625 20.75 C 10.496094 20.75 10.480469 20.734375 10.480469 20.71875 L 10.480469 19.796875 C 10.480469 19.78125 10.496094 19.765625 10.515625 19.765625 L 11.875 19.765625 C 11.894531 19.765625 11.910156 19.78125 11.910156 19.796875 L 11.910156 20.71875 C 11.910156 20.734375 11.894531 20.75 11.875 20.75 "/>
<path style=" stroke:none;fill-rule:nonzero;fill:rgb(21.960784%,30.980392%,49.411765%);fill-opacity:1;" d="M 11.296875 20.316406 Z M 10.601562 19.832031 L 11.113281 20.289062 C 11.160156 20.332031 11.230469 20.332031 11.273438 20.289062 L 11.785156 19.832031 Z M 11.195312 20.386719 C 11.148438 20.386719 11.105469 20.371094 11.070312 20.339844 L 10.492188 19.824219 C 10.480469 19.8125 10.476562 19.800781 10.484375 19.785156 C 10.488281 19.773438 10.5 19.765625 10.515625 19.765625 L 11.875 19.765625 C 11.890625 19.765625 11.902344 19.773438 11.90625 19.785156 C 11.910156 19.800781 11.90625 19.8125 11.898438 19.824219 L 11.320312 20.339844 C 11.285156 20.371094 11.238281 20.386719 11.195312 20.386719 "/>
<path style=" stroke:none;fill-rule:nonzero;fill:rgb(21.960784%,30.980392%,49.411765%);fill-opacity:1;" d="M 11.863281 20.730469 L 10.5 20.730469 C 10.488281 20.730469 10.472656 20.722656 10.46875 20.710938 C 10.464844 20.699219 10.46875 20.6875 10.476562 20.679688 L 10.984375 20.273438 C 11 20.261719 11.019531 20.261719 11.03125 20.273438 C 11.046875 20.285156 11.042969 20.304688 11.03125 20.316406 L 10.589844 20.671875 L 11.773438 20.671875 L 11.332031 20.316406 C 11.320312 20.304688 11.316406 20.285156 11.328125 20.273438 C 11.34375 20.261719 11.363281 20.261719 11.378906 20.273438 L 11.882812 20.679688 C 11.894531 20.6875 11.898438 20.699219 11.894531 20.710938 C 11.886719 20.722656 11.875 20.730469 11.863281 20.730469 "/>
</g>
</svg>
