<svg width="667" height="667" xmlns="http://www.w3.org/2000/svg">
 <metadata id="metadata8">image/svg+xml</metadata>

 <g>
  <title>background</title>
  <rect fill="none" id="canvas_background" height="240.212993" width="240.212993" y="-1" x="-1"/>
 </g>
 <g>
  <title>Layer 1</title>
  <path fill="#384f7e" fill-rule="nonzero" d="m327.471997,374.896003c0,15.905333 -12.892,28.798666 -28.798666,28.798666c-15.905333,0 -28.798666,-12.893333 -28.798666,-28.798666c0,-15.906667 12.893333,-28.8 28.798666,-28.8c15.906667,0 28.798666,12.893333 28.798666,28.8" id="path118"/>
  <path fill="#ffffff" fill-rule="nonzero" d="m317.51333,374.69467l-18.197333,-18.588c-0.337333,-0.346667 -0.948,-0.346667 -1.284,0l-6.901333,7.048l0,-3.758667c0,-0.497333 -0.401333,-0.898667 -0.897333,-0.898667l-3.568,0c-0.496,0 -0.897333,0.401333 -0.897333,0.898667l0,9.238667l-5.933333,6.06c-0.252,0.257333 -0.326667,0.642667 -0.185333,0.976c0.14,0.333333 0.465333,0.549333 0.826667,0.549333l4.764,0l0,16.825333c0,0.496 0.401333,0.898667 0.898667,0.898667l8.428,0c0.496,0 0.897333,-0.402667 0.897333,-0.898667l0,-5.942667c0,-1.769333 1.44,-3.209333 3.209333,-3.209333c1.770667,0 3.209333,1.44 3.209333,3.209333l0,5.942667c0,0.496 0.401333,0.898667 0.898667,0.898667l8.428,0c0.496,0 0.898667,-0.402667 0.898667,-0.898667l0,-16.825333l4.762667,0c0.361333,0 0.688,-0.216 0.828,-0.549333c0.14,-0.333333 0.066667,-0.718667 -0.185333,-0.976" id="path120"/>
 </g>
</svg>