<svg width="667" height="667" xmlns="http://www.w3.org/2000/svg">
 <metadata id="metadata8">image/svg+xml</metadata>

 <g>
  <title>background</title>
  <rect x="-1" y="-1" width="189.887322" height="189.887322" id="canvas_background" fill="none"/>
 </g>
 <g>
  <title>Layer 1</title>
  <path id="path108" d="m327.471997,126.522672c0,15.905333 -12.892,28.8 -28.798666,28.8c-15.905333,0 -28.798666,-12.894667 -28.798666,-28.8c0,-15.905333 12.893333,-28.798666 28.798666,-28.798666c15.906667,0 28.798666,12.893333 28.798666,28.798666" fill-rule="nonzero" fill="#384f7e"/>
  <path id="path110" d="m298.67333,124.636005c5.094667,0 9.24,-4.145333 9.24,-9.24c0,-5.093333 -4.145333,-9.238667 -9.24,-9.238667c-5.093333,0 -9.238667,4.145333 -9.238667,9.238667c0,5.094667 4.145333,9.24 9.238667,9.24" fill-rule="nonzero" fill="#ffffff"/>
  <path id="path112" d="m306.247997,124.805339c-0.377333,-0.161333 -0.810667,-0.024 -1.021333,0.328c-1.366667,2.313333 -3.878667,3.749333 -6.553333,3.749333c-2.674667,0 -5.185333,-1.436 -6.553333,-3.749333c-0.208,-0.352 -0.645333,-0.489333 -1.021333,-0.328c-6.92,3.02 -11.390667,9.842667 -11.390667,17.382666c0,0.446667 0.361333,0.809333 0.809333,0.809333l36.313333,0c0.446667,0 0.809333,-0.362667 0.809333,-0.809333c0,-7.54 -4.472,-14.364 -11.392,-17.382666" fill-rule="nonzero" fill="#ffffff"/>
 </g>
</svg>