<svg width="667" height="667" xmlns="http://www.w3.org/2000/svg">
 <metadata id="metadata8">image/svg+xml</metadata>

 <g>
  <title>background</title>
  <rect fill="none" id="canvas_background" height="175.241592" width="175.241592" y="-1" x="-1"/>
 </g>
 <g>
  <title>Layer 1</title>
  <path fill="#384f7e" fill-rule="nonzero" d="m327.472,209.31334c0,15.90533 -12.892,28.79866 -28.79867,28.79866c-15.90533,0 -28.79867,-12.89333 -28.79867,-28.79866c0,-15.90534 12.89334,-28.79867 28.79867,-28.79867c15.90667,0 28.79867,12.89334 28.79867,28.79867" id="path146"/>
  <path fill="#ffffff" fill-rule="nonzero" d="m310.708,216.41601c-1.35734,-1.35467 -3.536,-1.50667 -5.028,-0.38667l-3.43867,2.20267c-0.016,0.00533 -2.22533,0.88 -8.16267,-5.03334c-5.87066,-5.89466 -5.05333,-8.11333 -5.06266,-8.11333l0,0l2.20266,-3.45067c1.15067,-1.532 0.996,-3.71067 -0.35866,-5.06533l-3.27867,-3.27867c-0.79467,-0.79467 -1.876,-1.196 -3.01467,-1.12667c-1.12133,0.08 -2.152,0.64134 -2.82666,1.54134c-0.01067,0.016 -0.02267,0.03333 -0.03334,0.05066l-1.648,2.70534c-0.27333,0.37333 -6.52533,9.32666 7.336,23.28933c0.00267,0.00133 0.13067,0.128 0.132,0.12933c7.268,7.21734 13.17867,8.98134 17.22134,8.98134c3.72399,0 5.86533,-1.49867 6.024,-1.61467l2.79866,-1.70933c0.9,-0.676 1.46267,-1.70534 1.54134,-2.828c0.07866,-1.12134 -0.332,-2.21867 -1.12534,-3.01334l-3.27866,-3.28" id="path148"/>
  <path fill="#ffffff" fill-rule="nonzero" d="m305.80133,209.12801c0.124,0.12266 0.28533,0.18533 0.448,0.18533c0.164,0 0.32533,-0.06267 0.44933,-0.18533c2.28534,-2.28667 2.28534,-6.00667 0,-8.29334c-2.21333,-2.21466 -6.076,-2.21466 -8.29333,0c-0.24667,0.248 -0.24667,0.65067 0,0.89867c0.24933,0.24667 0.64933,0.24667 0.89867,0c1.736,-1.736 4.76133,-1.736 6.49733,0c1.79067,1.792 1.79067,4.70533 0,6.496c-0.24667,0.248 -0.24667,0.65067 0,0.89867" id="path150"/>
  <path fill="#ffffff" fill-rule="nonzero" d="m308.59866,211.66267c0.16267,0 0.324,-0.06267 0.44934,-0.18533c3.58133,-3.58267 3.58133,-9.41067 0,-12.992c-3.58134,-3.58134 -9.40934,-3.57867 -12.99067,0c-0.248,0.248 -0.248,0.65066 0,0.89866c0.24933,0.24667 0.64933,0.24667 0.89733,0c1.49467,-1.496 3.484,-2.31866 5.59734,-2.31866c2.11466,0 4.104,0.82266 5.59733,2.31866c3.08667,3.08534 3.08667,8.108 0,11.19467c-0.24667,0.248 -0.24667,0.64933 0,0.89867c0.12533,0.12267 0.28667,0.18533 0.44933,0.18533" id="path152"/>
  <path fill="#ffffff" fill-rule="nonzero" d="m294.56266,196.99201c2.13467,-2.13467 4.972,-3.30934 7.99067,-3.30934c3.01867,0 5.856,1.17467 7.99067,3.30934c4.40533,4.40533 4.40533,11.57333 0,15.97999c-0.248,0.248 -0.248,0.64934 0,0.89734c0.124,0.124 0.28533,0.18533 0.448,0.18533c0.164,0 0.32533,-0.06133 0.44933,-0.18533c4.9,-4.90133 4.9,-12.87467 0,-17.776c-2.37467,-2.37334 -5.53067,-3.68 -8.888,-3.68c-3.35867,0 -6.516,1.30666 -8.888,3.68c-0.248,0.248 -0.248,0.65066 0,0.89866c0.24933,0.24667 0.648,0.24667 0.89733,0" id="path154"/>
 </g>
</svg>