<svg width="667" height="667" xmlns="http://www.w3.org/2000/svg">
 <metadata id="metadata8">image/svg+xml</metadata>

 <g>
  <title>background</title>
  <rect fill="none" id="canvas_background" height="166.691358" width="166.691358" y="-1" x="-1"/>
 </g>
 <g>
  <title>Layer 1</title>
  <path fill="#384f7e" fill-rule="nonzero" d="m327.471997,292.105337c0,15.904 -12.892,28.798666 -28.798666,28.798666c-15.905333,0 -28.798666,-12.894667 -28.798666,-28.798666c0,-15.906667 12.893333,-28.8 28.798666,-28.8c15.906667,0 28.798666,12.893333 28.798666,28.8" id="path114"/>
  <path fill="#ffffff" fill-rule="nonzero" d="m298.67333,291.589337c-2.974667,0 -5.386667,-2.410667 -5.386667,-5.386667c0,-2.974667 2.412,-5.386667 5.386667,-5.386667c2.974667,0 5.386667,2.412 5.386667,5.386667c0,2.976 -2.412,5.386667 -5.386667,5.386667zm12.764,-5.386667c0,-7.048 -5.714667,-12.762667 -12.764,-12.762667c-7.048,0 -12.762667,5.714667 -12.762667,12.762667c0,0 -0.892,12.489333 12.762667,24.566666c13.656,-12.077333 12.764,-24.566666 12.764,-24.566666" id="path116"/>
 </g>
</svg>